<svg width="18" height="18" viewBox="0 0 18 18" fill="#61666d" xmlns="http://www.w3.org/2000/svg" class="link-icon"><path fill-rule="evenodd" clip-rule="evenodd" d="M17.6137 9.30115C17.6932 9.10837 17.6932 8.89282 17.6137 8.70004C17.5743 8.60393 17.5165 8.51726 17.4443 8.44504L15.2221 6.22282C14.9148 5.9156 14.4176 5.91615 14.111 6.22282C13.8043 6.52948 13.8037 7.02671 14.111 7.33393L14.9921 8.21504L7.99985 8.21504C7.56596 8.21448 7.21429 8.56615 7.21429 9.00059C7.21429 9.21726 7.30207 9.41393 7.44429 9.55615C7.58651 9.69837 7.78318 9.78615 7.99985 9.78615L14.9921 9.78615L14.111 10.6673C13.8043 10.9739 13.8037 11.4712 14.111 11.7784C14.4182 12.0856 14.9154 12.085 15.2221 11.7784L17.4443 9.55615C17.5165 9.48393 17.5743 9.39726 17.6137 9.30115" fill="var(--text2)"></path><path fill-rule="evenodd" clip-rule="evenodd" d="M11.8889 5.11111C9.74127 2.96349 6.25873 2.96349 4.11111 5.11111C1.96349 7.25873 1.96349 10.7413 4.11111 12.8889C6.25873 15.0365 9.74127 15.0365 11.8889 12.8889C12.1957 12.5821 12.6932 12.5821 13 12.8889C13.3068 13.1957 13.3068 13.6932 13 14C10.2387 16.7613 5.76127 16.7613 3 14C0.238731 11.2387 0.23873 6.76127 3 4C5.76127 1.23873 10.2387 1.23873 13 4C13.3068 4.30683 13.3068 4.80429 13 5.11111C12.6932 5.41794 12.1957 5.41794 11.8889 5.11111Z" fill="#61666d"></path></svg>
